<svg id="visual" viewBox="0 0 1300 800" width="1300" height="800" xmlns="http://www.w3.org/2000/svg" xmlns:xlink="http://www.w3.org/1999/xlink" version="1.1"><rect x="0" y="0" width="1300" height="800" fill="#03234d"></rect><path d="M0 323L18 307.2C36 291.3 72 259.7 108.2 254.2C144.3 248.7 180.7 269.3 216.8 284.8C253 300.3 289 310.7 325 308.2C361 305.7 397 290.3 433.2 284.3C469.3 278.3 505.7 281.7 541.8 284.3C578 287 614 289 650 295.3C686 301.7 722 312.3 758.2 318.5C794.3 324.7 830.7 326.3 866.8 315.7C903 305 939 282 975 252.7C1011 223.3 1047 187.7 1083.2 178.3C1119.3 169 1155.7 186 1191.8 192.8C1228 199.7 1264 196.3 1282 194.7L1300 193L1300 0L1282 0C1264 0 1228 0 1191.8 0C1155.7 0 1119.3 0 1083.2 0C1047 0 1011 0 975 0C939 0 903 0 866.8 0C830.7 0 794.3 0 758.2 0C722 0 686 0 650 0C614 0 578 0 541.8 0C505.7 0 469.3 0 433.2 0C397 0 361 0 325 0C289 0 253 0 216.8 0C180.7 0 144.3 0 108.2 0C72 0 36 0 18 0L0 0Z" fill="#ffffff" stroke-linecap="round" stroke-linejoin="miter"></path></svg>