<svg id="visual" viewBox="0 0 1300 800" width="1300" height="800" xmlns="http://www.w3.org/2000/svg" xmlns:xlink="http://www.w3.org/1999/xlink" version="1.1"><rect x="0" y="0" width="1300" height="800" fill="#03234d"></rect><path d="M0 161L18 153.2C36 145.3 72 129.7 108.2 127C144.3 124.3 180.7 134.7 216.8 142.3C253 150 289 155 325 153.7C361 152.3 397 144.7 433.2 141.7C469.3 138.7 505.7 140.3 541.8 141.7C578 143 614 144 650 147.2C686 150.3 722 155.7 758.2 158.8C794.3 162 830.7 163 866.8 157.7C903 152.3 939 140.7 975 125.8C1011 111 1047 93 1083.2 88.3C1119.3 83.7 1155.7 92.3 1191.8 95.8C1228 99.3 1264 97.7 1282 96.8L1300 96L1300 0L1282 0C1264 0 1228 0 1191.8 0C1155.7 0 1119.3 0 1083.2 0C1047 0 1011 0 975 0C939 0 903 0 866.8 0C830.7 0 794.3 0 758.2 0C722 0 686 0 650 0C614 0 578 0 541.8 0C505.7 0 469.3 0 433.2 0C397 0 361 0 325 0C289 0 253 0 216.8 0C180.7 0 144.3 0 108.2 0C72 0 36 0 18 0L0 0Z" fill="#ffffff" stroke-linecap="round" stroke-linejoin="miter"></path></svg>