<svg id="visual" viewBox="0 0 1300 800" width="1300" height="800" xmlns="http://www.w3.org/2000/svg" xmlns:xlink="http://www.w3.org/1999/xlink" version="1.1"><rect x="0" y="0" width="1300" height="800" fill="#03234d"></rect><path d="M0 148L16.7 150.7C33.3 153.3 66.7 158.7 100 148.7C133.3 138.7 166.7 113.3 200 107.3C233.3 101.3 266.7 114.7 300 121.3C333.3 128 366.7 128 400 127.3C433.3 126.7 466.7 125.3 500 129.3C533.3 133.3 566.7 142.7 600 134.7C633.3 126.7 666.7 101.3 700 88.8C733.3 76.3 766.7 76.7 800 87.3C833.3 98 866.7 119 900 125.8C933.3 132.7 966.7 125.3 1000 116.3C1033.3 107.3 1066.7 96.7 1100 104.7C1133.3 112.7 1166.7 139.3 1200 141.8C1233.3 144.3 1266.7 122.7 1283.3 111.8L1300 101L1300 0L1283.3 0C1266.7 0 1233.3 0 1200 0C1166.7 0 1133.3 0 1100 0C1066.7 0 1033.3 0 1000 0C966.7 0 933.3 0 900 0C866.7 0 833.3 0 800 0C766.7 0 733.3 0 700 0C666.7 0 633.3 0 600 0C566.7 0 533.3 0 500 0C466.7 0 433.3 0 400 0C366.7 0 333.3 0 300 0C266.7 0 233.3 0 200 0C166.7 0 133.3 0 100 0C66.7 0 33.3 0 16.7 0L0 0Z" fill="#ffffff" stroke-linecap="round" stroke-linejoin="miter"></path></svg>