<svg id="visual" viewBox="0 0 1300 800" width="1300" height="800" xmlns="http://www.w3.org/2000/svg" xmlns:xlink="http://www.w3.org/1999/xlink" version="1.1"><rect x="0" y="0" width="1300" height="800" fill="#03234d"></rect><path d="M0 215L18 204.5C36 194 72 173 108.2 169.3C144.3 165.7 180.7 179.3 216.8 189.7C253 200 289 207 325 205.3C361 203.7 397 193.3 433.2 189.2C469.3 185 505.7 187 541.8 188.8C578 190.7 614 192.3 650 196.7C686 201 722 208 758.2 212.2C794.3 216.3 830.7 217.7 866.8 210.5C903 203.3 939 187.7 975 168C1011 148.3 1047 124.7 1083.2 118.5C1119.3 112.3 1155.7 123.7 1191.8 128.2C1228 132.7 1264 130.3 1282 129.2L1300 128L1300 0L1282 0C1264 0 1228 0 1191.8 0C1155.7 0 1119.3 0 1083.2 0C1047 0 1011 0 975 0C939 0 903 0 866.8 0C830.7 0 794.3 0 758.2 0C722 0 686 0 650 0C614 0 578 0 541.8 0C505.7 0 469.3 0 433.2 0C397 0 361 0 325 0C289 0 253 0 216.8 0C180.7 0 144.3 0 108.2 0C72 0 36 0 18 0L0 0Z" fill="#ffffff" stroke-linecap="round" stroke-linejoin="miter"></path></svg>