<svg id="visual" viewBox="0 0 1300 800" width="1300" height="800" xmlns="http://www.w3.org/2000/svg" xmlns:xlink="http://www.w3.org/1999/xlink" version="1.1"><path d="M0 201L27.2 206.3C54.3 211.7 108.7 222.3 162.8 215.7C217 209 271 185 325.2 187.7C379.3 190.3 433.7 219.7 487.8 235.7C542 251.7 596 254.3 650.2 255.7C704.3 257 758.7 257 812.8 257C867 257 921 257 975.2 234.3C1029.3 211.7 1083.7 166.3 1137.8 150.3C1192 134.3 1246 147.7 1273 154.3L1300 161L1300 0L1273 0C1246 0 1192 0 1137.8 0C1083.7 0 1029.3 0 975.2 0C921 0 867 0 812.8 0C758.7 0 704.3 0 650.2 0C596 0 542 0 487.8 0C433.7 0 379.3 0 325.2 0C271 0 217 0 162.8 0C108.7 0 54.3 0 27.2 0L0 0Z" fill="#ffffff"></path><path d="M0 297L27.2 303.7C54.3 310.3 108.7 323.7 162.8 311.7C217 299.7 271 262.3 325.2 259.7C379.3 257 433.7 289 487.8 306.3C542 323.7 596 326.3 650.2 331.7C704.3 337 758.7 345 812.8 343.7C867 342.3 921 331.7 975.2 310.3C1029.3 289 1083.7 257 1137.8 247.7C1192 238.3 1246 251.7 1273 258.3L1300 265L1300 159L1273 152.3C1246 145.7 1192 132.3 1137.8 148.3C1083.7 164.3 1029.3 209.7 975.2 232.3C921 255 867 255 812.8 255C758.7 255 704.3 255 650.2 253.7C596 252.3 542 249.7 487.8 233.7C433.7 217.7 379.3 188.3 325.2 185.7C271 183 217 207 162.8 213.7C108.7 220.3 54.3 209.7 27.2 204.3L0 199Z" fill="#f4f7fa"></path><path d="M0 385L27.2 397C54.3 409 108.7 433 162.8 421C217 409 271 361 325.2 358.3C379.3 355.7 433.7 398.3 487.8 415.7C542 433 596 425 650.2 421C704.3 417 758.7 417 812.8 415.7C867 414.3 921 411.7 975.2 398.3C1029.3 385 1083.7 361 1137.8 351.7C1192 342.3 1246 347.7 1273 350.3L1300 353L1300 263L1273 256.3C1246 249.7 1192 236.3 1137.8 245.7C1083.7 255 1029.3 287 975.2 308.3C921 329.7 867 340.3 812.8 341.7C758.7 343 704.3 335 650.2 329.7C596 324.3 542 321.7 487.8 304.3C433.7 287 379.3 255 325.2 257.7C271 260.3 217 297.7 162.8 309.7C108.7 321.7 54.3 308.3 27.2 301.7L0 295Z" fill="#eaf0f6"></path><path d="M0 561L27.2 566.3C54.3 571.7 108.7 582.3 162.8 569C217 555.7 271 518.3 325.2 509C379.3 499.7 433.7 518.3 487.8 537C542 555.7 596 574.3 650.2 579.7C704.3 585 758.7 577 812.8 563.7C867 550.3 921 531.7 975.2 518.3C1029.3 505 1083.7 497 1137.8 490.3C1192 483.7 1246 478.3 1273 475.7L1300 473L1300 351L1273 348.3C1246 345.7 1192 340.3 1137.8 349.7C1083.7 359 1029.3 383 975.2 396.3C921 409.7 867 412.3 812.8 413.7C758.7 415 704.3 415 650.2 419C596 423 542 431 487.8 413.7C433.7 396.3 379.3 353.7 325.2 356.3C271 359 217 407 162.8 419C108.7 431 54.3 407 27.2 395L0 383Z" fill="#eaf0f6"></path><path d="M0 641L27.2 646.3C54.3 651.7 108.7 662.3 162.8 653C217 643.7 271 614.3 325.2 602.3C379.3 590.3 433.7 595.7 487.8 605C542 614.3 596 627.7 650.2 631.7C704.3 635.7 758.7 630.3 812.8 623.7C867 617 921 609 975.2 602.3C1029.3 595.7 1083.7 590.3 1137.8 586.3C1192 582.3 1246 579.7 1273 578.3L1300 577L1300 471L1273 473.7C1246 476.3 1192 481.7 1137.8 488.3C1083.7 495 1029.3 503 975.2 516.3C921 529.7 867 548.3 812.8 561.7C758.7 575 704.3 583 650.2 577.7C596 572.3 542 553.7 487.8 535C433.7 516.3 379.3 497.7 325.2 507C271 516.3 217 553.7 162.8 567C108.7 580.3 54.3 569.7 27.2 564.3L0 559Z" fill="#f4f7fa"></path><path d="M0 801L27.2 801C54.3 801 108.7 801 162.8 801C217 801 271 801 325.2 801C379.3 801 433.7 801 487.8 801C542 801 596 801 650.2 801C704.3 801 758.7 801 812.8 801C867 801 921 801 975.2 801C1029.3 801 1083.7 801 1137.8 801C1192 801 1246 801 1273 801L1300 801L1300 575L1273 576.3C1246 577.7 1192 580.3 1137.8 584.3C1083.7 588.3 1029.3 593.7 975.2 600.3C921 607 867 615 812.8 621.7C758.7 628.3 704.3 633.7 650.2 629.7C596 625.7 542 612.3 487.8 603C433.7 593.7 379.3 588.3 325.2 600.3C271 612.3 217 641.7 162.8 651C108.7 660.3 54.3 649.7 27.2 644.3L0 639Z" fill="#ffffff"></path></svg>